HIERARCHY
ROOT Hips
{
	OFFSET 0.00000 0.00000 0.00000
	CHANNELS 6 Xposition Yposition Zposition Zrotation Yrotation Xrotation 
	JOINT LHipJoint
	{
		OFFSET 0 0 0
		CHANNELS 3 Zrotation Yrotation Xrotation
		JOINT LeftHip
		{
			OFFSET 1.36337 -1.57426 1.11036
			CHANNELS 3 Zrotation Yrotation Xrotation
			JOINT LeftKnee
			{
				OFFSET 2.38468 -6.55187 0.00000
				CHANNELS 3 Zrotation Yrotation Xrotation
				JOINT LeftAnkle
				{
					OFFSET 2.37166 -6.51609 0.00000
					CHANNELS 3 Zrotation Yrotation Xrotation
					JOINT LeftToe
					{
						OFFSET 0.29078 -0.79891 2.01393
						CHANNELS 3 Zrotation Yrotation Xrotation
						End Site
						{
							OFFSET 0.00000 -0.00000 1.07924
						}
					}
				}
			}
		}
	}
	JOINT RHipJoint
	{
		OFFSET 0 0 0
		CHANNELS 3 Zrotation Yrotation Xrotation
		JOINT RightHip
		{
			OFFSET -1.36349 -1.57426 1.11036
			CHANNELS 3 Zrotation Yrotation Xrotation
			JOINT RightKnee
			{
				OFFSET -2.29562 -6.30717 0.00000
				CHANNELS 3 Zrotation Yrotation Xrotation
				JOINT RightAnkle
				{
					OFFSET -2.40985 -6.62100 0.00000
					CHANNELS 3 Zrotation Yrotation Xrotation
					JOINT RightToe
					{
						OFFSET -0.23197 -0.63733 1.92232
						CHANNELS 3 Zrotation Yrotation Xrotation
						End Site
						{
							OFFSET -0.00000 -0.00000 1.01562
						}
					}
				}
			}
		}
	}
	JOINT lowerback
	{
		OFFSET 0 0 0
		CHANNELS 3 Zrotation Yrotation Xrotation
		JOINT Chest
		{
			OFFSET -0.08565 2.03602 -0.24562
			CHANNELS 3 Zrotation Yrotation Xrotation
			JOINT Chest2
			{
				OFFSET -0.00036 2.05693 0.00216
				CHANNELS 3 Zrotation Yrotation Xrotation
				JOINT lowerneck
				{
					OFFSET 0 0 0
					CHANNELS 3 Zrotation Yrotation Xrotation
					JOINT Neck
					{
						OFFSET -0.03664 1.69515 0.31789
						CHANNELS 3 Zrotation Yrotation Xrotation
						JOINT Head
						{
							OFFSET 0.00932 1.70181 -0.46013
							CHANNELS 3 Zrotation Yrotation Xrotation
							End Site
							{
								OFFSET 0.01243 1.77620 -0.19377
							}
						}
					}
				}
				JOINT LeftCollar
				{
					OFFSET 0 0 0
					CHANNELS 3 Zrotation Yrotation Xrotation
					JOINT LeftShoulder
					{
						OFFSET 3.74344 0.81315 -0.36647
CHANNELS 3 Zrotation Xrotation Yrotation
						JOINT LeftElbow
						{
OFFSET 0 -4.971850 -0.000000
CHANNELS 3 Zrotation Xrotation Yrotation
							JOINT LeftWrist
							{
OFFSET 0 -3.358110 0.000000
CHANNELS 3 Zrotation Xrotation Yrotation
								JOINT lhand
								{
									OFFSET 0 0 0
CHANNELS 3 Zrotation Xrotation Yrotation
									JOINT LFingers
									{
OFFSET 0 -0.622780 0.000000
CHANNELS 3 Zrotation Xrotation Yrotation
										End Site
										{
OFFSET 0 -0.502100 0.000000
										}
									}
								}
								JOINT LThumb
								{
OFFSET 0 0.000000 0.000000
CHANNELS 3 Zrotation Xrotation Yrotation
									End Site
									{
OFFSET 0 -0.509760 0.509760
									}
								}
							}
						}
					}
				}
				JOINT RightCollar
				{
					OFFSET 0 0 0
					CHANNELS 3 Zrotation Yrotation Xrotation
					JOINT RightShoulder
					{
						OFFSET -3.75385 0.50666 -0.06525
CHANNELS 3 Zrotation Xrotation Yrotation
						JOINT RightElbow
						{
OFFSET 0 -4.964930 -0.000000
CHANNELS 3 Zrotation Xrotation Yrotation
							JOINT RightWrist
							{
OFFSET 0 -3.349290 0.000000
CHANNELS 3 Zrotation Xrotation Yrotation
								JOINT rhand
								{
									OFFSET 0 0 0
CHANNELS 3 Zrotation Xrotation Yrotation
									JOINT RFingers
									{
OFFSET 0 -0.638040 0.000000
CHANNELS 3 Zrotation Xrotation Yrotation
										End Site
										{
OFFSET 0 -0.514410 0.000000
										}
									}
								}
								JOINT RThumb
								{
OFFSET 0 0.000000 0.000000
CHANNELS 3 Zrotation Xrotation Yrotation
									End Site
									{
OFFSET 0 -0.522260 0.522260
									}
								}
							}
						}
					}
				}
			}
		}
	}
}
MOTION
Frames: 10
Frame Time: 0.008333333333333333
-21.937900 16.567300 -1.266400 173.694000 81.788400 177.948000 0.000000 0.000000 0.000000 -16.824900 -6.791100 -4.494100 1.648800 8.092800 22.996200 1.769700 6.364300 -28.095600 0.053400 1.491200 4.101300 0.000000 0.000000 0.000000 15.723900 5.334500 -4.144100 -1.385400 -7.447500 21.048100 -1.700400 -15.216300 -34.095200 -0.425600 -4.187100 11.603600 -5.168200 -2.540300 -11.369700 0.350300 -2.658700 2.614000 2.769700 -1.584100 9.475300 -5.273200 -2.287600 -23.527500 2.660900 -1.843800 26.151500 1.603800 -0.898900 12.708000 0.000000 -0.000000 0.000000 -0.165000 0.013800 -38.764300 15.284900 -24.541400 3.343400 19.012800 -6.919700 5.203000 0.000000 0.000000 0.000000 -7.125000 0.000000 0.000000 -5.720800 24.479900 -2.849600 0.000000 -0.000000 0.000000 -0.676800 -7.508600 17.408600 -10.340600 -17.270500 -1.574600 17.570900 -25.478300 34.229100 0.000000 0.000000 0.000000 7.125000 0.000000 -0.000000 53.494200 56.107800 -18.185900
-21.976278 16.564551 -1.295982 170.558661 81.485135 174.484285 0.000000 0.000000 0.000000 -17.546451 -7.001228 -4.067871 1.632581 8.054802 22.880761 1.730618 6.550135 -27.938952 0.062196 1.609307 4.427137 0.000000 0.000000 0.000000 14.773796 3.204421 -4.774547 -1.417939 -7.530626 21.297202 -1.631925 -13.963078 -32.638071 -0.355866 -3.831885 10.604129 -5.249471 -2.529267 -10.464027 0.131678 -2.663939 2.664672 2.610316 -1.575953 8.996183 -5.224314 -2.273769 -23.646072 2.595129 -1.822990 25.943602 1.570457 -0.895235 12.645567 0.000000 0.000000 0.000000 -0.190664 -0.144980 -38.860340 15.213754 -24.442972 3.313891 18.738305 -7.100621 6.311597 0.000000 0.000000 0.000000 -7.125000 0.000000 0.000000 -5.900098 23.325827 -3.097566 0.000000 0.000000 0.000000 -0.339595 -6.251956 22.473014 -10.941812 -18.198831 -1.757859 9.025954 -18.017049 31.767502 0.000000 0.000000 0.000000 7.125000 0.000000 0.000000 43.597995 56.144689 -13.755857
-22.000026 16.560163 -1.329735 167.486641 81.326998 171.118005 0.000000 0.000000 0.000000 -18.275482 -6.908229 -3.609357 1.596130 7.968618 22.618867 1.717953 6.623549 -27.895533 0.069009 1.694154 4.661035 0.000000 0.000000 0.000000 13.798384 0.850054 -5.504608 -1.450555 -7.613025 21.544772 -1.592446 -12.360791 -31.087397 -0.264485 -3.303352 9.124831 -5.270782 -2.537491 -9.802654 -0.064266 -2.692156 2.723456 2.430515 -1.579278 8.668777 -5.243670 -2.222750 -23.826465 2.543732 -1.718850 25.952535 1.571840 -0.858796 12.679958 0.000000 0.000000 0.000000 -0.319592 -0.254515 -38.743022 15.165297 -24.375891 3.293879 18.709473 -7.127057 6.416495 0.000000 0.000000 0.000000 -7.125000 0.000000 0.000000 -5.919349 23.217002 -3.122628 0.000000 0.000000 0.000000 -0.043519 -5.092343 27.319006 -11.517010 -19.075984 -1.941782 0.239134 -10.066812 30.835240 0.000000 0.000000 0.000000 7.125000 0.000000 0.000000 34.631326 57.244903 -11.286950
-22.117964 16.583563 -1.376921 161.026603 83.142166 164.419718 0.000000 0.000000 0.000000 -19.183601 -6.732922 -3.454638 1.559862 7.881837 22.355859 1.597386 8.879645 -28.528228 0.045204 1.369437 3.765862 0.000000 0.000000 0.000000 12.803770 -0.279612 -6.824083 -1.470879 -7.663894 21.697843 -1.357732 -10.567654 -28.112620 -0.188981 -2.798275 7.717650 -4.726597 -1.752502 -7.944330 -0.389583 -1.796826 2.501969 1.990589 -1.078119 7.241306 -5.087230 -2.146968 -23.995655 2.503963 -1.654277 25.897174 1.540377 -0.820522 12.685668 0.000000 0.000000 0.000000 -1.885240 -5.615196 -34.089440 9.578082 -16.075210 1.357266 20.055472 -4.104799 10.511572 0.000000 0.000000 0.000000 -7.125000 0.000000 0.000000 -4.944805 18.829346 -3.095486 0.000000 0.000000 0.000000 0.330743 -3.690371 32.707738 -12.308232 -20.265287 -2.207887 -9.908019 -0.217101 32.348756 0.000000 0.000000 0.000000 7.125000 0.000000 0.000000 25.950475 60.814806 -10.403809
-22.145214 16.590783 -1.391954 158.571429 83.357460 161.816160 0.000000 0.000000 0.000000 -19.522978 -6.823442 -3.392585 1.541503 7.837428 22.221286 1.442777 9.861633 -28.167334 0.033971 1.189297 3.269734 0.000000 0.000000 0.000000 12.397688 -0.924840 -7.096753 -1.473972 -7.671580 21.720941 -1.306875 -9.926038 -27.254852 -0.205973 -2.921857 8.061192 -4.719266 -1.665467 -7.210985 -0.505432 -1.718471 2.389470 1.897802 -1.024287 6.687826 -4.958564 -2.020913 -23.815623 2.460943 -1.522853 25.696526 1.523280 -0.755859 12.561347 0.000000 0.000000 0.000000 -1.795538 -5.403965 -34.195800 9.663520 -16.210938 1.380080 19.952339 -4.290726 10.538497 0.000000 0.000000 0.000000 -7.125000 0.000000 0.000000 -5.017945 18.808672 -3.143939 0.000000 0.000000 0.000000 0.357838 -3.604058 32.851484 -12.317525 -20.279158 -2.211165 -9.748045 -0.276945 32.351924 0.000000 0.000000 0.000000 7.125000 0.000000 0.000000 26.118793 60.779269 -10.454361
-22.137693 16.589814 -1.390079 158.469875 83.416957 161.528160 0.000000 0.000000 0.000000 -19.519269 -6.646368 -3.224207 1.539057 7.831493 22.203415 1.452577 9.820608 -28.204681 0.045809 1.376449 3.785390 0.000000 0.000000 0.000000 12.430045 -0.872018 -6.864520 -1.476364 -7.677529 21.738878 -1.292776 -10.055687 -27.253138 -0.188004 -2.791151 7.697942 -4.791963 -1.667078 -7.048446 -0.462504 -1.724100 2.438282 1.986056 -1.031250 6.650752 -4.683940 -1.959520 -23.927994 2.076092 -1.414159 25.846576 1.349866 -0.733648 12.633480 0.000000 0.000000 0.000000 -1.816766 -5.442539 -34.277340 9.567333 -16.059694 1.352980 19.960229 -4.346669 10.501175 0.000000 0.000000 0.000000 -7.125000 0.000000 0.000000 -5.011768 18.847535 -3.135840 0.000000 0.000000 0.000000 0.373340 -3.616644 32.537431 -12.116786 -19.979462 -2.142086 -9.823406 0.144359 31.342733 0.000000 0.000000 0.000000 7.125000 0.000000 0.000000 25.163244 59.896956 -9.518488
-22.139866 16.589600 -1.393614 157.243783 83.414466 160.293608 0.000000 0.000000 0.000000 -19.711595 -6.666892 -3.124258 1.539637 7.833020 22.208083 1.514808 9.627679 -28.490957 0.054735 1.509447 4.151776 0.000000 0.000000 0.000000 12.240802 -1.112166 -6.952806 -1.478652 -7.683218 21.755975 -1.297774 -9.838009 -27.121613 -0.177346 -2.712441 7.479237 -4.892908 -1.657316 -6.871527 -0.480775 -1.712877 2.359547 2.030717 -1.024683 6.467758 -4.821317 -1.971952 -23.851390 2.198472 -1.416675 25.927022 1.420893 -0.730859 12.653075 0.000000 0.000000 0.000000 -1.813486 -5.005427 -34.518472 9.884350 -16.558415 1.441782 19.777625 -4.333874 9.747764 0.000000 0.000000 0.000000 -7.125000 0.000000 0.000000 -5.131674 19.655118 -3.118755 0.000000 0.000000 0.000000 0.387511 -3.503559 32.128961 -11.932554 -19.703442 -2.079503 -10.183908 0.597463 29.738380 0.000000 0.000000 0.000000 7.125000 0.000000 0.000000 23.485569 58.533735 -8.056284
-22.137309 16.587480 -1.391720 156.798526 83.463238 159.861429 0.000000 0.000000 0.000000 -19.724056 -6.630688 -3.120209 1.545001 7.846031 22.247304 1.532710 9.552513 -28.558634 0.067702 1.678362 4.617541 0.000000 0.000000 0.000000 12.201190 -1.102019 -6.965158 -1.476040 -7.676849 21.736847 -1.312059 -9.704947 -27.123240 -0.182622 -2.752093 7.589225 -4.952029 -1.613091 -6.805920 -0.476062 -1.652653 2.348127 2.078382 -0.996371 6.415727 -4.826294 -2.003887 -23.751169 2.231150 -1.478545 25.777992 1.421736 -0.754489 12.576266 0.000000 0.000000 0.000000 -1.848441 -5.078768 -34.463968 9.802928 -16.430686 1.418689 19.365048 -4.082888 9.428062 0.000000 0.000000 0.000000 -7.125000 0.000000 0.000000 -5.423733 20.019429 -3.253725 0.000000 0.000000 0.000000 0.427941 -3.523711 31.923826 -11.911949 -19.672469 -2.072580 -10.097113 0.762797 30.145169 0.000000 0.000000 0.000000 7.125000 0.000000 0.000000 23.890183 58.883624 -8.408698
-22.131443 16.585889 -1.389517 157.708245 83.543867 160.789217 0.000000 0.000000 0.000000 -19.544144 -6.280345 -3.230084 1.548380 7.854155 22.272055 1.598866 9.120838 -28.700128 0.078474 1.806608 4.971400 0.000000 0.000000 0.000000 12.351043 -1.051062 -6.993402 -1.472923 -7.669057 21.713179 -1.280117 -9.853159 -27.004454 -0.179266 -2.727219 7.520161 -4.857393 -1.605017 -6.756762 -0.422741 -1.658832 2.317723 2.082173 -0.995527 6.353986 -4.774636 -1.967222 -23.720770 2.151318 -1.425429 25.674534 1.390538 -0.737218 12.525471 0.000000 0.000000 0.000000 -1.821799 -5.000807 -34.535876 9.835075 -16.481217 1.427825 19.113327 -4.201011 9.373428 0.000000 0.000000 0.000000 -7.125000 0.000000 0.000000 -5.603648 20.093246 -3.353383 0.000000 0.000000 0.000000 0.441887 -3.509987 32.028228 -11.915698 -19.678096 -2.073832 -10.134581 0.818644 30.321284 0.000000 0.000000 0.000000 7.125000 0.000000 0.000000 23.990999 59.051453 -8.544270
-22.122393 16.587457 -1.387445 158.192185 83.658750 161.107195 0.000000 0.000000 0.000000 -19.442604 -6.170305 -3.023299 1.550612 7.859545 22.288166 1.625132 8.982329 -28.781297 0.084321 1.873104 5.155181 0.000000 0.000000 0.000000 12.471697 -1.103644 -6.745150 -1.471478 -7.665473 21.702618 -1.316648 -9.654665 -27.117808 -0.200116 -2.880215 7.945447 -4.793153 -1.555877 -6.679543 -0.393940 -1.602258 2.418022 2.083675 -0.968534 6.410436 -4.690689 -1.936651 -23.777032 2.055761 -1.384517 25.607529 1.345936 -0.724527 12.506604 0.000000 0.000000 0.000000 -1.838068 -5.126096 -34.557744 9.802384 -16.429972 1.418544 19.128649 -4.085905 9.238456 0.000000 0.000000 0.000000 -7.125000 0.000000 0.000000 -5.592292 20.233842 -3.328786 0.000000 0.000000 0.000000 0.449934 -3.586794 32.068667 -11.893645 -19.644968 -2.066369 -10.328266 0.927952 30.138591 0.000000 0.000000 0.000000 7.125000 0.000000 0.000000 23.648513 58.929347 -8.343477
